<?xml version="1.0" encoding="UTF-8"?>
<svg version="1.1" xmlns="http://www.w3.org/2000/svg" width="1254" height="1254">
<path d="M0 0 C413.82 0 827.64 0 1254 0 C1254 413.82 1254 827.64 1254 1254 C840.18 1254 426.36 1254 0 1254 C0 840.18 0 426.36 0 0 Z " fill="#1172FD" transform="translate(0,0)"/>
<path d="M0 0 C413.82 0 827.64 0 1254 0 C1254 413.82 1254 827.64 1254 1254 C840.18 1254 426.36 1254 0 1254 C0 840.18 0 426.36 0 0 Z M220.3125 79.0625 C219.31557129 79.35777588 218.31864258 79.65305176 217.29150391 79.95727539 C174.6565246 93.08268654 134.84375292 121.74693913 110 159 C109.46681152 159.79631836 108.93362305 160.59263672 108.38427734 161.41308594 C95.88219386 180.31655497 86.55877622 200.3442538 80.875 222.3125 C80.62363281 223.24255859 80.37226562 224.17261719 80.11328125 225.13085938 C76.97567065 237.14741516 75.69822726 249.02037954 75.75111103 261.42058849 C75.74850375 262.70141539 75.74589646 263.98224229 75.74321017 265.30188212 C75.73631011 268.82891331 75.74170914 272.3558305 75.74926625 275.88285629 C75.75527747 279.73067929 75.74959572 283.57848877 75.74544543 287.42631179 C75.73977676 294.16080966 75.74149526 300.89527375 75.7481308 307.62977028 C75.75797076 317.64420614 75.75631031 327.65861741 75.7523805 337.67305616 C75.7461119 354.52408963 75.74926954 371.37510909 75.75797462 388.22614098 C75.76659332 404.91364357 75.77149468 421.60113987 75.77130699 438.28864479 C75.77129935 439.3272325 75.7712917 440.3658202 75.77128382 441.43588026 C75.77124291 445.65191563 75.7711773 449.867951 75.77107801 454.08398637 C75.77017222 493.62241535 75.78011265 533.16083475 75.79550768 572.69926041 C75.80913425 607.82530586 75.81536881 642.95134451 75.81469727 678.07739258 C75.81465685 680.33328764 75.81461649 682.58918271 75.81457619 684.84507778 C75.81455584 685.96035147 75.81453548 687.07562516 75.81451452 688.22469503 C75.81441372 693.83886421 75.81432314 699.45303339 75.81424427 705.06720257 C75.81422756 706.17479931 75.81421084 707.28239605 75.81419362 708.42355633 C75.81382845 737.77925871 75.81836704 767.13496025 75.82457083 796.49066192 C75.82479111 797.53488794 75.82501138 798.57911396 75.82523832 799.65498319 C75.82612655 803.85400716 75.82701495 808.05303113 75.82792928 812.25205509 C75.83108857 826.85909531 75.83259845 841.46613485 75.83304077 856.07317539 C75.83363787 874.8948472 75.83763252 893.7165134 75.84747223 912.53818282 C75.85258607 922.49176232 75.85499698 932.44533357 75.85347604 942.39891432 C75.85274136 949.04723665 75.85564722 955.69555097 75.86151985 962.34387074 C75.86476777 966.1318241 75.86645928 969.91976021 75.86375926 973.7077144 C75.86089115 977.79080392 75.86575803 981.87384826 75.87136555 985.95693493 C75.86931023 987.12889934 75.86725491 988.30086375 75.86513731 989.50834224 C75.88805656 998.62398675 75.98745123 1007.33892228 79 1016 C79.09796875 1017.27746094 79.1959375 1018.55492187 79.296875 1019.87109375 C79.95632901 1026.19980739 82.12752155 1031.9718931 84.25 1037.9375 C84.63285156 1039.05318359 85.01570313 1040.16886719 85.41015625 1041.31835938 C87.5465559 1047.41674433 89.92479537 1053.20264167 92.94506836 1058.91772461 C94.26691455 1061.52684893 95.18768359 1064.19381603 96 1067 C96.66 1067 97.32 1067 98 1067 C98.26296875 1067.87269531 98.5259375 1068.74539063 98.796875 1069.64453125 C112.52760201 1107.93899391 154.06109028 1139.53275227 189 1157 C193.53484682 1159.04783616 198.11538461 1160.80021978 202.8125 1162.4375 C206.90822968 1163.8716514 210.90677121 1165.37253348 214.875 1167.125 C221.61519132 1169.88336212 228.85981669 1170.78449479 236 1172 C237.77248764 1172.34579227 239.54364669 1172.69857324 241.3125 1173.0625 C242.03336534 1173.2060715 242.75423069 1173.34964301 243.49694043 1173.49756517 C245.13923358 1173.82721984 246.77938894 1174.16774996 248.41694039 1174.52020453 C255.57321932 1175.96923933 262.4293746 1176.28165459 269.7167511 1176.25168228 C270.95795222 1176.25458916 272.19915333 1176.25749604 273.47796661 1176.26049101 C276.90794411 1176.2665111 280.33770072 1176.2636399 283.76766267 1176.25693511 C287.50514079 1176.25184432 291.24260204 1176.25838845 294.98007774 1176.26342177 C301.5257222 1176.27063532 308.07133364 1176.27043205 314.6169796 1176.26532745 C324.35107362 1176.25775706 334.08513983 1176.2616329 343.81923366 1176.26774407 C361.20739922 1176.27827417 378.59555008 1176.27736308 395.98371703 1176.27158624 C411.20543451 1176.26655408 426.42714661 1176.2652422 441.64886475 1176.26763153 C443.16372373 1176.26786069 443.16372373 1176.26786069 444.70918593 1176.26809447 C448.8088664 1176.26871716 452.90854687 1176.26935396 457.00822733 1176.270014 C495.47127926 1176.27613259 533.93432183 1176.2705848 572.39737231 1176.2598202 C606.54958786 1176.25033471 640.70178849 1176.25117335 674.85400391 1176.26074219 C713.23487229 1176.2714599 751.61573239 1176.27569289 789.99660206 1176.26951766 C794.09127108 1176.26887625 798.18594011 1176.26825056 802.28060913 1176.26763153 C803.79289482 1176.2673943 803.79289482 1176.2673943 805.33573174 1176.26715227 C820.54019916 1176.26488025 835.7446606 1176.26753256 850.9491272 1176.27259064 C868.24883662 1176.27831708 885.54852906 1176.27686288 902.84823638 1176.26602915 C912.5224055 1176.26017013 922.19653781 1176.25975353 931.87070594 1176.2673215 C938.34309943 1176.27182484 944.81546357 1176.26898174 951.28785272 1176.26031196 C954.96882993 1176.25558094 958.64973433 1176.25387175 962.3307091 1176.26112393 C982.78693489 1176.29839266 1002.30391878 1175.58235955 1022.25 1170.75 C1022.8909964 1170.59793091 1023.5319928 1170.44586182 1024.19241333 1170.28918457 C1033.89246661 1167.98067337 1042.96782026 1165.21905846 1052 1161 C1053.05574219 1160.56042969 1054.11148438 1160.12085938 1055.19921875 1159.66796875 C1087.7672212 1145.74406478 1115.99639588 1123.48014598 1137 1095 C1138.17369141 1093.40865234 1138.17369141 1093.40865234 1139.37109375 1091.78515625 C1144.87075039 1084.0741992 1149.52753838 1076.02612123 1154.05126953 1067.71679688 C1155.21330804 1065.61400358 1156.45556456 1063.56240949 1157.6875 1061.5 C1159.92030219 1057.46228455 1161.59518377 1053.23618409 1163.25 1048.9375 C1163.50869873 1048.27621094 1163.76739746 1047.61492188 1164.03393555 1046.93359375 C1165.76321586 1042.28063531 1166.53709881 1037.94312346 1167 1033 C1167.66 1033 1168.32 1033 1169 1033 C1169.80199483 1029.16875613 1170.58953379 1025.33466367 1171.375 1021.5 C1171.70757813 1019.91251953 1171.70757813 1019.91251953 1172.046875 1018.29296875 C1175.72180919 1000.24255671 1176.29976928 982.89013329 1176.28174055 964.5105929 C1176.28026378 960.75556553 1176.29035805 957.00056503 1176.29889059 953.2455495 C1176.31396947 945.81481284 1176.31843256 938.38410496 1176.3195487 930.95335459 C1176.3213841 922.04507288 1176.33474329 913.13681741 1176.34824235 904.22854708 C1176.38028674 882.70113581 1176.39216108 861.1737275 1176.40173985 839.64629667 C1176.40642015 829.44983062 1176.41362644 819.25336681 1176.4211306 809.05690252 C1176.44679726 774.11151142 1176.46823413 739.16612156 1176.4751358 704.22072124 C1176.47557906 702.02904156 1176.47602263 699.83736188 1176.47646651 697.6456822 C1176.47690778 695.44888827 1176.47734874 693.25209434 1176.4777894 691.05530041 C1176.47867447 686.64860197 1176.47956871 682.24190352 1176.48046875 677.83520508 C1176.48068753 676.74260876 1176.48090631 675.65001244 1176.48113173 674.52430715 C1176.48838626 639.13000684 1176.52020361 603.73578862 1176.56684948 568.34151973 C1176.61614528 530.86756195 1176.64348614 493.39365104 1176.64587164 455.91965991 C1176.64621451 451.79838199 1176.64664535 447.67710409 1176.6471405 443.55582619 C1176.64730781 442.03380905 1176.64730781 442.03380905 1176.64747849 440.48104409 C1176.64977099 424.21671812 1176.67174227 407.95247701 1176.70091461 391.6881796 C1176.72978131 375.30982364 1176.73604205 358.93157537 1176.72003466 342.55320092 C1176.71118554 332.84892416 1176.71858517 323.1449973 1176.75051167 313.44076719 C1176.77024117 306.92807012 1176.76744061 300.41561385 1176.74763921 293.90291816 C1176.73701689 290.21195677 1176.73489059 286.52165892 1176.76065665 282.83075687 C1176.86374166 267.04122999 1175.89010001 251.85544443 1173.20406342 236.30746174 C1173.07893932 235.57913689 1172.95381522 234.85081203 1172.82489948 234.10041673 C1168.48495713 209.34866533 1158.8483064 183.4576666 1144 163 C1143.56574707 162.39639648 1143.13149414 161.79279297 1142.68408203 161.17089844 C1137.18087732 153.55503679 1131.5432499 146.15794632 1125.125 139.28125 C1123.69692128 137.74816549 1122.30102161 136.18452521 1120.9375 134.59375 C1101.21921488 111.68574229 1073.17559345 94.3804818 1045 84 C1043.31583984 83.35998047 1043.31583984 83.35998047 1041.59765625 82.70703125 C1030.59376161 78.63284225 1019.8592862 75.95397543 1008.2265625 74.4296875 C1006.19242199 74.15879712 1004.16283518 73.84791568 1002.1437829 73.48112269 C999.1921897 73.0294126 996.45464365 72.87400202 993.47291112 72.8723495 C991.84915933 72.86782555 991.84915933 72.86782555 990.19260448 72.8632102 C988.42148338 72.86586441 988.42148338 72.86586441 986.61458206 72.86857224 C985.34845984 72.8665196 984.08233762 72.86446697 982.77784806 72.86235213 C979.25474533 72.85678932 975.73166692 72.8574572 972.2085612 72.85912972 C968.37876575 72.85986087 964.54897716 72.85483775 960.71918464 72.8505547 C953.11914357 72.84297357 945.51910952 72.84078158 937.91906506 72.84022565 C928.81702491 72.8393121 919.71499126 72.83264476 910.6129539 72.82587883 C888.61084833 72.80981427 866.60874344 72.80391473 844.60663306 72.79913008 C834.19689587 72.79679427 823.78715923 72.79319161 813.37742248 72.7894347 C777.74075265 72.7765979 742.10408313 72.76587952 706.46741104 72.7624321 C704.2300353 72.76221047 701.99265956 72.76198868 699.75528382 72.76176675 C697.51250687 72.76154611 695.26972993 72.76132562 693.02695298 72.7611053 C688.52757152 72.76066275 684.02819006 72.76021563 679.52880859 72.75976562 C677.8554293 72.75960154 677.8554293 72.75960154 676.14824436 72.75943414 C639.98629418 72.7558046 603.82436406 72.7398891 567.66242156 72.71657526 C529.42669804 72.69196955 491.19098598 72.67825888 452.95525432 72.67706418 C448.75633033 72.67689273 444.55740634 72.6766773 440.35848236 72.67642975 C439.32459527 72.67637398 438.29070817 72.67631821 437.22549117 72.67626075 C420.59837124 72.67511085 403.97127192 72.66409387 387.34415895 72.64954269 C370.624356 72.63516369 353.90457942 72.63194861 337.18477198 72.63998267 C327.25711517 72.64443255 317.32954356 72.64060406 307.40189797 72.62474416 C300.76164012 72.614969 294.12144174 72.61619656 287.48118439 72.62618039 C283.70339343 72.63155423 279.92576567 72.63234181 276.14798847 72.61967167 C256.84835633 72.55898953 238.90295027 73.50789478 220.3125 79.0625 Z " fill="#FDFDFD" transform="translate(0,0)"/>
<path d="M0 0 C1.5325238 -0.00605089 3.06504157 -0.01383379 4.59754878 -0.02318513 C8.78329702 -0.04366256 12.96870107 -0.03940292 17.154477 -0.03082395 C21.67886814 -0.02587424 26.20317802 -0.04393675 30.72753906 -0.05889893 C39.58210795 -0.08435646 48.43655544 -0.08798477 57.29115476 -0.0832984 C64.49233275 -0.07972713 71.693474 -0.08324187 78.8946476 -0.09174728 C80.43413424 -0.09353285 80.43413424 -0.09353285 82.00472162 -0.09535449 C84.08997705 -0.0977781 86.17523247 -0.10020636 88.26048789 -0.10263924 C107.80316455 -0.12437696 127.34577215 -0.12007196 146.88845269 -0.10786955 C164.74404411 -0.09753631 182.59941714 -0.12003085 200.45496538 -0.15806599 C218.81133296 -0.19686656 237.16759735 -0.21332688 255.52400619 -0.20581949 C265.82073104 -0.20200152 276.11727012 -0.20691084 286.41396141 -0.23524857 C295.18143725 -0.25913438 303.94861302 -0.26182154 312.7160932 -0.23766823 C317.18405978 -0.22593019 321.65147832 -0.22358 326.11940765 -0.24767303 C330.22007523 -0.26952738 334.3197418 -0.26302663 338.42036388 -0.23514967 C339.89339175 -0.22989267 341.36649982 -0.23447148 342.83944853 -0.25062139 C358.08517128 -0.40600351 371.55423362 3.7112364 382.66230774 14.52139282 C383.23207336 15.05248657 383.80183899 15.58358032 384.38887024 16.13076782 C393.45304754 25.52032585 395.77674174 37.63209102 395.79932213 50.17934513 C395.80197396 50.91008262 395.80462578 51.64082011 395.80735797 52.39370117 C395.81499044 54.83146568 395.8156078 57.26917933 395.81620789 59.70695496 C395.82022648 61.47683414 395.82466536 63.24671241 395.82948744 65.01658958 C395.84141404 69.87223166 395.84709225 74.72786383 395.8516686 79.58351767 C395.85763937 84.82366496 395.86924529 90.06380049 395.87995911 95.30393982 C395.90444616 107.95335926 395.91910318 120.60278257 395.93201917 133.2522184 C395.93573328 136.82628627 395.93970631 140.40035377 395.94377184 143.97442126 C395.96900638 166.18173539 395.99105349 188.38905017 396.00349998 210.59637547 C396.00642953 215.73650172 396.00939122 220.87662795 396.0124054 226.01675415 C396.01315145 227.29425983 396.0138975 228.57176552 396.01466615 229.88798349 C396.02732012 250.58320115 396.0605465 271.2783329 396.10220723 291.97351039 C396.14465194 313.23275995 396.16819779 334.49196555 396.17342055 355.75125736 C396.17683134 367.6828027 396.18854801 379.61421367 396.22152328 391.54571724 C396.24955949 401.70651624 396.26050728 411.86715329 396.24932782 422.02798796 C396.24415078 427.20863799 396.24696626 432.38894905 396.27179337 437.56954956 C396.2943695 442.32024093 396.29348131 447.07035149 396.27458949 451.82105362 C396.27180123 453.53171065 396.27732212 455.24240778 396.29240243 456.95300061 C396.42134753 472.54362301 393.81474773 486.70624418 382.66230774 498.52139282 C376.64317128 503.78480314 370.17459756 507.78719004 362.66230774 510.52139282 C361.31112036 511.03275877 361.31112036 511.03275877 359.93263626 511.55445534 C356.49953562 512.56951963 353.74137863 512.77521656 350.16908264 512.78145504 C348.87343038 512.78852063 347.57777811 512.79558622 346.24286366 512.80286592 C344.81204002 512.80061474 343.38121668 512.79816826 341.95039368 512.79554749 C340.42488944 512.80000127 338.89938751 512.80531578 337.37388897 512.81141621 C333.18447192 512.82559038 328.99512908 512.82725961 324.80569148 512.8268193 C320.28604395 512.82846807 315.76642694 512.84153588 311.24679565 512.85301208 C301.36429514 512.8758586 291.4818161 512.88378263 281.59929276 512.88883853 C275.42574494 512.89209658 269.25220335 512.8986198 263.07865906 512.90583992 C245.97834473 512.925407 228.8780362 512.94181004 211.77770996 512.94471645 C210.13633319 512.94499781 210.13633319 512.94499781 208.4617973 512.94528485 C206.24356302 512.94565109 204.02532874 512.94601479 201.80709445 512.94637596 C200.15543724 512.94665018 200.15543724 512.94665018 198.47041321 512.94692993 C197.36796048 512.94711048 196.26550776 512.94729103 195.12964737 512.94747705 C177.2756532 512.95101685 159.42177978 512.9780266 141.56782746 513.01542782 C123.22746219 513.05353971 104.88715677 513.07287415 86.54675102 513.07317597 C76.25338176 513.07375996 65.96015647 513.08221428 55.66682434 513.11117363 C46.89957754 513.13572627 38.13252721 513.14294435 29.3652553 513.1279261 C24.89559729 513.12077256 20.42632691 513.1215471 15.95671272 513.1443367 C11.85668619 513.16504061 7.75734247 513.16222107 3.65732241 513.14146186 C2.18215629 513.13798858 0.70693975 513.14278428 -0.76816034 513.15716629 C-14.07210703 513.2784112 -26.25133616 510.74461332 -36.33769226 501.52139282 C-37.20394226 500.73764282 -38.07019226 499.95389282 -38.96269226 499.14639282 C-47.77536343 489.40607206 -53.45628555 478.69298281 -53.46912003 465.36845589 C-53.47117266 464.64372255 -53.47322529 463.91898921 -53.47534013 463.17229426 C-53.48101849 460.73087374 -53.47955184 458.28950948 -53.47813416 455.8480835 C-53.48071733 454.08506895 -53.48373036 452.322055 -53.48713756 450.55904186 C-53.49521678 445.70382976 -53.49699765 440.84863243 -53.49773502 435.9934144 C-53.49958405 430.76071684 -53.50713077 425.52802698 -53.51387024 420.29533386 C-53.52746209 408.84664977 -53.53348001 397.39796917 -53.5378809 385.94927835 C-53.54064269 378.79983222 -53.54488001 371.65038745 -53.54938507 364.50094223 C-53.56158038 344.70538734 -53.57187818 324.90983354 -53.57526016 305.11427498 C-53.57547973 303.84683211 -53.57569929 302.57938923 -53.57592551 301.273539 C-53.57614379 300.00305514 -53.57636207 298.73257129 -53.57658696 297.42358792 C-53.57703043 294.8490932 -53.57747699 292.27459848 -53.57792664 289.70010376 C-53.57814807 288.42306437 -53.5783695 287.14602499 -53.57859764 285.83028744 C-53.58254331 265.15033196 -53.59998913 244.47041176 -53.62328616 223.7904699 C-53.64701313 202.55734125 -53.65946268 181.32423029 -53.66062808 160.09108818 C-53.66154425 148.17017374 -53.66728161 136.24930524 -53.68544769 124.32840347 C-53.70086703 114.17409173 -53.70595842 104.01984011 -53.69770959 93.86551888 C-53.69380919 88.68713 -53.69470282 83.50886212 -53.70876694 78.3304882 C-53.72154273 73.58289308 -53.72027611 68.83550944 -53.70817623 64.08791445 C-53.70622555 62.37716165 -53.70926832 60.66639367 -53.71802059 58.95566215 C-53.78613627 44.73257617 -53.10420649 31.39660004 -44.33769226 19.52139282 C-43.82335632 18.81369751 -43.30902039 18.1060022 -42.77909851 17.37686157 C-31.89172555 3.72195496 -16.68415648 -0.09399923 0 0 Z " fill="#FCFDFD" transform="translate(454.3376922607422,363.4786071777344)"/>
<path d="M0 0 C2.06653572 -0.00218322 4.13253282 -0.02040701 6.19897461 -0.03930664 C15.03118196 -0.07699181 23.55562945 0.65289906 32.26733398 2.18530273 C33.07291748 2.32605225 33.87850098 2.46680176 34.70849609 2.61181641 C74.35711054 10.03141353 113.2590294 30.07548741 136.84594727 63.71435547 C151.63360076 85.95768286 152.26733398 104.86779522 152.26733398 132.18530273 C53.59733398 132.18530273 -45.07266602 132.18530273 -146.73266602 132.18530273 C-146.73266602 95.2080731 -141.42929031 71.95026232 -115.54516602 45.56030273 C-85.17349269 15.46466583 -42.29710586 -0.00497789 0 0 Z " fill="#1172FD" transform="translate(622.732666015625,633.814697265625)"/>
<path d="M0 0 C3.57196731 2.79308 6.81770001 5.77319231 10 9 C10.69609375 9.68578125 11.3921875 10.3715625 12.109375 11.078125 C25.91039255 25.52105034 31.76061753 43.4120918 31.45581055 63.10498047 C30.70454924 83.90267175 21.72627158 103.54839616 6.828125 118.125 C-2.39005612 126.04397439 -14.29024198 131.81513739 -26 135 C-27.175625 135.391875 -28.35125 135.78375 -29.5625 136.1875 C-49.21682585 140.77999594 -68.29251477 134.29808838 -84.91015625 124.23828125 C-96.11828412 116.80661687 -103.18523911 107.3305663 -110 96 C-110.52464844 95.19820312 -111.04929687 94.39640625 -111.58984375 93.5703125 C-119.69937854 78.78894438 -120.63314651 58.92268461 -116.45532227 42.84838867 C-110.06713123 21.37407085 -96.57819171 4.73572774 -77 -6 C-51.72838713 -18.35033637 -23.05871382 -15.68331639 0 0 Z " fill="#1273FC" transform="translate(669,452)"/>
<path d="M0 0 C0.99 0.33 1.98 0.66 3 1 C0.69 3.31 -1.62 5.62 -4 8 C-4.99 7.67 -5.98 7.34 -7 7 C-4.69 4.69 -2.38 2.38 0 0 Z " fill="#2279FB" transform="translate(129,136)"/>
<path d="M0 0 C0.66 0.33 1.32 0.66 2 1 C0.35 2.65 -1.3 4.3 -3 6 C-3.99 5.34 -4.98 4.68 -6 4 C-4.02 2.68 -2.04 1.36 0 0 Z " fill="#247FFD" transform="translate(171,101)"/>
<path d="M0 0 C1.45606519 4.52092968 0.27032841 7.51648796 -1 12 C-1.94314127 8.58389775 -2.08065117 5.54865136 -2 2 C-1.34 2 -0.68 2 0 2 C0 1.34 0 0.68 0 0 Z " fill="#6EABFD" transform="translate(1170,1021)"/>
</svg>
